<svg xmlns="http://www.w3.org/2000/svg" viewBox="0 0 640 360" width="640" height="360" role="img" aria-label="Ремонт коридора в квартире">
  <defs>
    <linearGradient id="hwall" x1="0" y1="0" x2="0" y2="1"><stop offset="0" stop-color="#f4f7fc"/><stop offset="1" stop-color="#e7eefa"/></linearGradient>
  </defs>
  <rect width="640" height="360" fill="url(#hwall)"/>
  <rect y="298" width="640" height="62" fill="#d9c3a6"/>
  <rect y="294" width="640" height="6" fill="#c9ad8a"/>
  <!-- door -->
  <rect x="70" y="70" width="150" height="228" rx="6" fill="#2d2eaf"/>
  <rect x="86" y="86" width="118" height="196" rx="4" fill="#3a3bc4"/>
  <rect x="96" y="100" width="98" height="78" rx="4" fill="#4a4bd6"/>
  <rect x="96" y="190" width="98" height="78" rx="4" fill="#4a4bd6"/>
  <circle cx="190" cy="190" r="6" fill="#ffc945"/>
  <!-- console table -->
  <rect x="280" y="220" width="180" height="14" rx="5" fill="#c8915a"/>
  <rect x="290" y="234" width="10" height="64" fill="#b07d46"/>
  <rect x="440" y="234" width="10" height="64" fill="#b07d46"/>
  <!-- mirror round -->
  <circle cx="370" cy="130" r="56" fill="#cfeaff" stroke="#fff" stroke-width="6"/>
  <circle cx="370" cy="130" r="56" fill="none" stroke="#ff8120" stroke-width="4"/>
  <!-- vase + decor -->
  <path d="M300 220 c0 -28 28 -28 28 0 z" fill="#0087ca"/>
  <path d="M314 196 c-14 -22 -2 -40 0 -44 c8 12 14 30 0 44z" fill="#3fae7a"/>
  <rect x="410" y="196" width="36" height="24" rx="4" fill="#ffc945"/>
  <!-- coat hooks -->
  <rect x="500" y="90" width="90" height="10" rx="4" fill="#7a8aa0"/>
  <g fill="#2d2eaf"><rect x="512" y="100" width="8" height="46" rx="4"/><rect x="552" y="100" width="8" height="60" rx="4"/></g>
  <circle cx="556" cy="120" r="16" fill="#ff8120"/>
</svg>
